HIERARCHY
ROOT pelvis
{
  OFFSET 0 0 0
  CHANNELS 6 Xposition Yposition Zposition Zrotation Xrotation Yrotation
  JOINT pelvis_right_femur
  {
    OFFSET -11.43119 -3.542788 0.2090856
    CHANNELS 3 Zrotation Xrotation Yrotation
    JOINT right_femur_tibia
    {
      OFFSET -1.028693 -40.73281 5
      CHANNELS 3 Zrotation Xrotation Yrotation
      JOINT right_tibia_foot
      {
        OFFSET -0.5013517 -42.05707 -5
        CHANNELS 3 Zrotation Xrotation Yrotation
        End Site
        {
          OFFSET 0 -5 10
        }
      }
    }
  }
  JOINT pelvis_left_femur
  {
    OFFSET 11.43119 -3.542788 0.2090856
    CHANNELS 3 Zrotation Xrotation Yrotation
    JOINT left_femur_tibia
    {
      OFFSET 1.028693 -40.73281 5
      CHANNELS 3 Zrotation Xrotation Yrotation
      JOINT left_tibia_foot
      {
        OFFSET 0.3200228 -42.98253 -5
        CHANNELS 3 Zrotation Xrotation Yrotation
        End Site
        {
          OFFSET 0 -5 10
        }
      }
    }
  }
  JOINT pelvis_spine1
  {
    OFFSET 0 8.64413 -3.209807
    CHANNELS 3 Zrotation Xrotation Yrotation
    JOINT spine1
    {
      OFFSET 0 29.53957 -1.762685
      CHANNELS 3 Zrotation Xrotation Yrotation
      JOINT spine2
      {
        OFFSET 0 16.36153 -0.1422377
        CHANNELS 3 Zrotation Xrotation Yrotation
        JOINT neck
        {
          OFFSET 0 11.60093 5
          CHANNELS 3 Zrotation Xrotation Yrotation
          End Site
          {
            OFFSET 0 20 0
          }
        }
      }
      JOINT right_manubrium
      {
        OFFSET -4.671311 15.89868 4
        CHANNELS 3 Zrotation Xrotation Yrotation
        JOINT right_clavicle
        {
          OFFSET -13.601 1.573642 -2.74176
          CHANNELS 3 Zrotation Xrotation Yrotation
          JOINT right_humerus
          {
            OFFSET -0.06331682 -27.72702 2.252146
            CHANNELS 3 Zrotation Xrotation Yrotation
            JOINT right_radius
            {
              OFFSET -0.5696302 -23.92083 0.4042105
              CHANNELS 3 Zrotation Xrotation Yrotation
              End Site
              {
                OFFSET 0 -15 0
              }
            }
          }
        }
      }
      JOINT left_manubrium
      {
        OFFSET 4.671311 15.89868 4
        CHANNELS 3 Zrotation Xrotation Yrotation
        JOINT left_clavicle
        {
          OFFSET 13.601 1.573642 -2.74176
          CHANNELS 3 Zrotation Xrotation Yrotation
          JOINT left_humerus
          {
            OFFSET 0.000209614 -29.01858 1.101395
            CHANNELS 3 Zrotation Xrotation Yrotation
            JOINT left_radius
            {
              OFFSET -0.2288314 -24.59216 1.790347
              CHANNELS 3 Zrotation Xrotation Yrotation
              End Site
              {
                OFFSET 0 -15 0
              }
            }
          }
        }
      }
    }
  }
}
MOTION
Frames: 23
Frame Time: 0.0416666666667
-0.01495692 48.23072 -0.0532369 -4.758273 -21.02554 -2.232615 -51.08536 -59.34475 -51.05611 -180 85.91744 -180 4.70789 5.41121 -0.9118933 67.79176 -51.35407 61.72493 -180 80.03823 -180 -4.754317 3.29352 -19.34588 2.624877 23.25767 -1.861141 6.621101 13.70077 -8.311345 -11.62937 9.84952 9.796867 6.656865 -29.2849 1.661962 21.24542 -9.76291 23.04548 -63.32506 -27.67584 9.818806 0 -71.40727 0 17.03636 2.437019 33.599 -28.75367 -28.04629 -4.7982 49.0269 -25.72858 -24.10857 0 -70.47956 0 -12.62391 -6.700483 -4.141908
0.01622395 48.23556 -0.02609457 -4.745334 -21.01373 -2.229013 -51.06022 -59.40521 -50.93646 -180 85.89128 -180 4.716911 5.413894 -0.9608808 67.83234 -51.27003 61.84475 -180 80.01142 -180 -4.745605 3.305835 -19.41509 2.75104 23.24844 -2.19208 6.513621 13.65168 -8.371066 -11.4611 9.915089 10.04513 6.539357 -29.39393 1.998892 21.12109 -9.650986 23.31283 -63.02827 -27.71911 9.72132 0 -71.47606 0 17.24446 3.359499 34.5901 -28.77633 -27.61589 -5.22135 48.35448 -26.19421 -25.01781 0 -70.69617 0 -11.50497 -7.954678 -1.70684
0.04093798 48.23801 -0.01507051 -4.751055 -20.96882 -2.290308 -51.04969 -59.50295 -50.88923 -180 85.89249 -180 4.721806 5.42166 -0.9696771 67.90809 -51.20717 61.95535 -180 79.99221 -180 -4.752508 3.293985 -19.44204 2.838112 23.25497 -2.488167 6.43509 13.58648 -8.450222 -11.36253 9.921585 10.30789 6.347381 -29.51928 2.351843 21.06916 -9.525176 23.61342 -62.71722 -27.77757 9.627326 0 -71.54874 0 17.4177 4.173213 35.47299 -28.84292 -27.23282 -5.602084 47.73405 -26.57403 -25.8099 0 -70.77616 0 -10.21995 -8.979954 0.5251905
0.05122642 48.24487 -0.01376067 -4.75571 -20.92059 -2.380052 -51.07904 -59.57213 -50.94061 -180 85.91669 -180 4.728506 5.425181 -0.9301321 67.9573 -51.17741 62.00065 -180 79.97565 -180 -4.772234 3.262429 -19.41658 2.882592 23.28164 -2.757162 6.37752 13.52025 -8.518736 -11.28204 9.896912 10.58798 6.106887 -29.63249 2.750418 21.10431 -9.3898 23.90593 -62.41439 -27.83346 9.504589 0 -71.63686 0 17.55468 4.905517 36.25292 -28.96759 -26.94815 -5.87743 47.22746 -26.82927 -26.34347 0 -70.77498 0 -8.786692 -9.862228 2.57934
0.0445523 48.25392 -0.01153901 -4.761467 -20.8787 -2.489226 -51.13689 -59.60849 -51.06795 -180 85.93161 -180 4.725032 5.441861 -0.8402149 67.97133 -51.18375 61.95741 -180 79.95877 -180 -4.806194 3.208865 -19.34209 2.907749 23.28354 -2.930022 6.286682 13.49819 -8.503696 -11.20223 9.901343 10.92215 5.834245 -29.67746 3.25395 21.15514 -9.272288 24.11909 -62.15279 -27.83923 9.334363 0 -71.7244 0 17.656 5.551979 36.94091 -29.10648 -26.78868 -5.977519 46.91012 -26.94464 -26.58707 0 -70.86926 0 -7.306153 -10.72831 4.423504
0.03648021 48.26141 -0.009428552 -4.767967 -20.85412 -2.627818 -51.21271 -59.61972 -51.23818 -180 85.95363 -180 4.721882 5.468542 -0.7228087 67.94562 -51.19952 61.84405 -180 79.93432 -180 -4.841686 3.151116 -19.23304 2.941845 23.23369 -3.038684 6.172749 13.50928 -8.41572 -11.16474 9.948077 11.4305 5.528957 -29.62122 3.994211 21.1566 -9.156597 24.29325 -61.94094 -27.79728 9.156486 0 -71.8126 0 17.74505 6.139633 37.54696 -29.20597 -26.65066 -6.034059 46.73848 -26.99081 -26.75439 0 -71.07399 0 -5.962142 -11.58098 6.067304
0.03125462 48.28021 0.01341056 -4.759427 -20.81924 -2.748627 -51.368 -59.58402 -51.49113 -180 85.95952 -180 4.711951 5.492801 -0.582348 67.86167 -51.24092 61.67444 -180 79.91143 -180 -4.886472 3.085041 -19.09821 3.010314 23.1787 -3.111925 6.012353 13.50136 -8.285284 -11.26787 9.958216 12.29217 5.172251 -29.4747 5.156414 21.09835 -9.050305 24.38632 -61.76315 -27.72542 8.986552 0 -71.92738 0 17.82243 6.658579 38.07863 -29.27435 -26.61891 -6.170302 46.86562 -26.92437 -26.68692 0 -70.94767 0 -4.859581 -12.33256 7.558171
0.01901222 48.29309 0.04584553 -4.721407 -20.80144 -2.822014 -51.55713 -59.51123 -51.74495 -180 85.94819 -180 4.705628 5.503484 -0.4287606 67.75252 -51.28522 61.51033 -180 79.88392 -180 -4.931056 3.018382 -18.97069 3.139353 23.11792 -3.148165 5.842332 13.48199 -8.130741 -11.59683 9.88338 13.66691 4.75415 -29.28294 6.900417 20.98956 -8.974831 24.37069 -61.62078 -27.63835 8.829945 0 -72.08141 0 17.89333 7.124027 38.54384 -29.24797 -26.61152 -6.436277 47.27304 -26.73754 -26.46045 0 -70.61553 0 -4.017398 -13.02425 8.879763
0.01040517 48.31245 0.067829 -4.657985 -20.79882 -2.849183 -51.75292 -59.41747 -51.97018 -180 85.94135 -180 4.69813 5.490599 -0.2965212 67.58306 -51.32413 61.34062 -180 79.8926 -180 -4.970453 2.967463 -18.86732 3.339903 23.0194 -3.083684 5.652474 13.51392 -7.929262 -12.18035 9.788228 15.51751 4.25829 -29.02834 9.157598 20.86945 -8.959787 24.21759 -61.53853 -27.52535 8.627635 0 -72.27093 0 17.95397 7.534059 38.94565 -29.08422 -26.57495 -6.690112 47.85844 -26.46575 -26.16021 0 -70.67713 0 -3.396446 -13.78729 9.983937
0.007784156 48.34043 0.07169149 -4.570462 -20.78706 -2.826107 -51.95097 -59.34173 -52.14193 -180 85.94707 -180 4.696304 5.476861 -0.2105963 67.38458 -51.37536 61.20017 -180 79.93467 -180 -5.000154 2.934277 -18.7972 3.62762 22.89576 -2.897746 5.421422 13.60478 -7.690104 -12.88746 9.71508 17.61447 3.706735 -28.73306 11.69874 20.76363 -9.01496 23.89395 -61.49452 -27.39407 8.386411 0 -72.53047 0 17.99649 7.882603 39.29087 -28.84149 -26.64098 -6.742159 48.65775 -26.05667 -25.56862 0 -71.19175 0 -2.938374 -14.64335 10.87263
0.001129453 48.36389 0.06975255 -4.471237 -20.78374 -2.745904 -52.11142 -59.2897 -52.22236 -180 85.93384 -180 4.689796 5.462356 -0.1745701 67.1882 -51.4292 61.09168 -180 79.98974 -180 -5.012239 2.928601 -18.76829 3.952927 22.78739 -2.590855 5.168185 13.75952 -7.481234 -13.55401 9.682053 19.68012 3.137588 -28.41007 14.23752 20.68884 -9.140774 23.44548 -61.49748 -27.25744 8.101563 0 -72.86352 0 18.03232 8.171115 39.58695 -28.54319 -26.87996 -6.520056 49.78105 -25.44976 -24.54107 0 -71.96114 0 -2.601661 -15.58473 11.5948
-0.01423278 48.37214 0.05447605 -4.365485 -20.79347 -2.60536 -52.28922 -59.24325 -52.29528 -180 85.8999 -180 4.690472 5.438328 -0.1872857 67.02771 -51.49772 61.05085 -180 80.03656 -180 -5.017287 2.942408 -18.75763 4.262346 22.69413 -2.177333 4.960646 13.93579 -7.364331 -14.06834 9.765536 21.50446 2.604133 -28.04641 16.55287 20.61073 -9.315333 22.93856 -61.5426 -27.13966 7.822893 0 -73.22232 0 18.06737 8.408738 39.83671 -28.09387 -27.38267 -6.000308 51.27276 -24.68052 -23.0608 0 -72.83311 0 -2.362303 -16.60483 12.17965
-0.01910576 48.37813 0.03702301 -4.282342 -20.79396 -2.465669 -52.41704 -59.21981 -52.33273 -180 85.87407 -180 4.694236 5.424164 -0.227774 66.90205 -51.5609 61.05306 -180 80.09088 -180 -5.016486 2.964524 -18.75713 4.544098 22.58003 -1.67014 4.857497 14.13048 -7.353149 -14.37081 9.970736 22.96589 2.150748 -27.66294 18.49535 20.49888 -9.520832 22.43368 -61.62453 -27.0313 7.580029 0 -73.57018 0 18.12402 8.603916 40.04811 -27.45211 -28.10375 -5.20649 53.08043 -23.73324 -21.21744 0 -73.4626 0 -2.188517 -17.6386 12.69967
-0.01528524 48.39257 0.01122181 -4.213126 -20.76067 -2.319872 -52.54396 -59.20541 -52.37962 -180 85.89393 -180 4.699049 5.402167 -0.2828262 66.81308 -51.65517 61.08108 -180 80.16303 -180 -5.004732 2.993325 -18.76653 4.762979 22.42419 -1.101578 4.885994 14.34425 -7.473694 -14.44944 10.27167 24.05284 1.806402 -27.30409 20.04602 20.37105 -9.747488 21.98321 -61.75622 -26.93244 7.351985 0 -73.86641 0 18.18965 8.764822 40.22062 -26.66579 -28.9888 -4.242285 55.06515 -22.60019 -19.1405 0 -73.54432 0 -2.067883 -18.6279 13.2202
0.003204708 48.41449 0.001841948 -4.17406 -20.70178 -2.176509 -52.65596 -59.17979 -52.43397 -180 85.91577 -180 4.708248 5.376422 -0.3414148 66.74984 -51.78312 61.10279 -180 80.21491 -180 -4.99081 3.017151 -18.77213 4.914667 22.23077 -0.4652745 5.059707 14.57581 -7.735104 -14.31798 10.61122 24.82643 1.579475 -27.02531 21.26568 20.26487 -9.985671 21.58823 -61.91718 -26.83192 7.133296 0 -74.126 0 18.26671 8.877878 40.36282 -25.84023 -30.0231 -3.272345 57.10579 -21.32208 -16.92309 0 -72.81215 0 -1.974874 -19.53293 13.77289
0.04971675 48.46696 0.05791348 -4.187693 -20.63088 -2.012866 -52.75842 -59.05784 -52.51298 -180 85.91127 -180 4.715968 5.358582 -0.3985635 66.6916 -51.92591 61.09113 -180 80.21413 -180 -4.968718 3.035904 -18.77301 5.010644 21.9458 0.2064632 5.390465 14.87031 -8.149909 -14.01117 10.94589 25.37969 1.469364 -26.86933 22.25168 20.19974 -10.20073 21.23854 -62.08172 -26.7073 6.935294 0 -74.36124 0 18.35232 8.949227 40.47378 -25.04568 -31.17006 -2.41932 59.09448 -19.94955 -14.67112 0 -71.18257 0 -1.917306 -20.33357 14.37287
0.05680079 48.45955 0.04712883 -4.218552 -20.55743 -1.882563 -52.86151 -59.05645 -52.62641 -180 85.89983 -180 4.743838 5.349662 -0.479089 66.79879 -52.10912 61.21275 -180 80.21388 -180 -4.946048 3.076524 -18.76794 4.97838 21.83424 0.6435566 5.688689 14.99256 -8.423834 -13.60233 11.22429 25.80213 1.450297 -26.76769 23.06868 20.15837 -10.38364 21.0053 -62.21381 -26.61667 6.803935 0 -74.5698 0 18.45255 8.971316 40.56394 -24.12569 -32.48509 -1.715674 61.04767 -18.58158 -12.3994 0 -68.60884 0 -1.899396 -21.02728 15.03291
0.05729623 48.46179 0.01879283 -4.284204 -20.50097 -1.754803 -52.85391 -59.04862 -52.6388 -180 85.91061 -180 4.770046 5.329128 -0.5792894 66.94834 -52.27584 61.30805 -180 80.22019 -180 -4.907922 3.110749 -18.78159 4.857547 21.85321 0.8711311 5.973635 15.04107 -8.60632 -13.14345 11.40277 26.15346 1.488045 -26.77601 23.77093 20.14912 -10.53479 20.86105 -62.3221 -26.5183 6.7129 0 -74.74126 0 18.5619 8.954154 40.62688 -23.16683 -33.9329 -1.266182 62.9083 -17.29227 -10.1899 0 -65.17281 0 -1.915096 -21.59767 15.72589
0.04031956 48.40863 -0.03987048 -4.369391 -20.4335 -1.628541 -52.8732 -59.13863 -52.70758 -180 85.90237 -180 4.813845 5.328484 -0.693679 67.26778 -52.47022 61.57538 -180 80.21265 -180 -4.875148 3.160951 -18.80319 4.639465 21.98307 0.9661127 6.257259 14.96214 -8.745794 -12.68803 11.51355 26.48242 1.568015 -26.84717 24.3973 20.15051 -10.67618 20.8003 -62.43177 -26.43735 6.650196 0 -74.92406 0 18.68208 8.878474 40.67709 -22.16176 -35.46644 -1.091485 64.62578 -16.11105 -8.101338 0 -60.8632 0 -1.993862 -22.01732 16.46152
0.03207061 48.43806 0.04166579 -4.490912 -20.33663 -1.451468 -52.81452 -59.08136 -52.70856 -180 85.8553 -180 4.851419 5.292554 -0.8015604 67.55461 -52.58529 61.78827 -180 80.13992 -180 -4.83858 3.182208 -18.86068 4.37068 21.91009 1.079094 6.626297 15.07467 -9.002489 -12.25444 11.59081 26.79278 1.687574 -27.04957 24.95915 20.22123 -10.77469 20.75178 -62.54851 -26.29011 6.586561 0 -75.10571 0 18.80904 8.740857 40.71476 -21.32136 -36.99537 -1.248469 66.09786 -15.05557 -6.242552 0 -55.94908 0 -2.158909 -22.30828 17.18774
0.05613889 48.44534 0.06564867 -4.663409 -20.19528 -1.311028 -52.7598 -59.09052 -52.75478 -180 85.83817 -180 4.903622 5.261309 -0.9252704 67.96956 -52.75666 62.10755 -180 80.07501 -180 -4.803614 3.205488 -18.92816 4.037713 21.94938 1.102179 7.009345 15.1108 -9.264945 -11.83928 11.6067 27.09825 1.84661 -27.29369 25.47036 20.294 -10.89269 20.76402 -62.69626 -26.14273 6.50534 0 -75.31274 0 18.93616 8.554683 40.74114 -20.51512 -38.49562 -1.686697 67.38385 -14.15549 -4.595239 0 -50.58945 0 -2.429489 -22.4783 17.8964
0.08715272 48.45969 0.0868558 -4.872933 -20.03426 -1.195557 -52.65078 -59.10601 -52.77789 -180 85.87778 -180 4.951043 5.225007 -1.046746 68.41142 -52.92674 62.43379 -180 80.03165 -180 -4.773979 3.206069 -18.99714 3.657977 22.0451 1.095683 7.387853 15.11019 -9.493495 -11.43505 11.576 27.40443 2.052574 -27.56858 25.95496 20.38496 -11.01804 20.79109 -62.85319 -25.9762 6.404792 0 -75.51576 0 19.05828 8.313966 40.756 -19.79193 -39.92743 -2.305557 68.45435 -13.37188 -3.146365 0 -45.16808 0 -2.77876 -22.58907 18.53516
0.1206632 48.48 0.1320346 -5.118852 -19.8602 -1.109332 -52.50525 -59.1213 -52.81028 -180 85.92303 -180 5.004425 5.186259 -1.152877 68.90331 -53.07687 62.78113 -180 79.97002 -180 -4.753124 3.192384 -19.0602 3.261935 22.14416 1.057505 7.725525 15.09995 -9.679545 -11.0756 11.53881 27.70306 2.290639 -27.84037 26.38955 20.51864 -11.12549 20.81418 -62.98505 -25.78443 6.308451 0 -75.72787 0 19.17761 8.045208 40.75904 -19.21013 -41.30855 -2.996705 69.31014 -12.70948 -1.840506 0 -40.07004 0 -3.17356 -22.69196 19.06764
